<?xml version="1.0" encoding="UTF-8"?>
<svg id="Layer_1" data-name="Layer 1" xmlns="http://www.w3.org/2000/svg" viewBox="0 0 729.68 381.73">
  <defs>
    <style>
      .cls-1 {
        fill: #116ee1;
      }

      .cls-2 {
        fill: #87b7ef;
      }
    </style>
  </defs>
  <path class="cls-1" d="M550.42,189.73c1.52,1.57,24.83-8.45,28.93-10.13,32.87-13.4,131-51.8,147.47-80.14,14.55-25.05-30.17-26.96-45.88-28-81.97-5.43-188.63,15.6-268.92,34.54-111.45,26.29-282.7,80.08-374.26,147.94-32.19,23.86-65.94,53.75.41,58.6,39.53,2.89,98.15-4.27,137.38-12.31,4.31-.88,15.16-2.22,17.84-4.48,4.26-3.6,1.13-12.13,2.64-17.44s16.2-15.3,21.17-19c66.3-49.34,228.09-97.78,309.76-89.65,12.97,1.29,24.95,4.51,23.47,20.07Z"/>
  <path class="cls-2" d="M250.54,266.98c-6.44,5.82-10,7.58-13.26,16.89-4.13,11.78-16.37,65.24-17.05,76.89-.55,9.51,5.07,15.85,13.16,19.89l327.15,1.09c20.09-1.73,21.29-16.86,15.49-33.52-10.25-29.41-35.66-76.33-50.49-105.73-15.75-31.23-15.99-48.62-56.3-45.78-48.51,3.42-183.97,38.87-218.7,70.28Z"/>
  <path class="cls-1" d="M367.87.68c-60.43-5.99-119.13,27.95-142.13,84.19-5.5,13.45-21.15,51.67,6.05,48.66,46.41-16.88,93.66-31.26,141.37-44.06,13.88-3.72,81.55-17.06,86.99-22.35,15.69-15.3-31.68-46.67-43.68-52.55-13.35-6.53-33.83-12.43-48.6-13.89Z"/>
</svg>